<?xml version="1.0" standalone="no"?>
<!DOCTYPE svg PUBLIC "-//W3C//DTD SVG 20010904//EN"
 "http://www.w3.org/TR/2001/REC-SVG-20010904/DTD/svg10.dtd">
<svg version="1.0" xmlns="http://www.w3.org/2000/svg"
 width="400.000000pt" height="400.000000pt" viewBox="0 0 400.000000 400.000000"
 preserveAspectRatio="xMidYMid meet">

<g transform="translate(0.000000,400.000000) scale(0.100000,-0.100000)"
fill="#000000" stroke="none">
<path d="M2220 2574 c-80 -42 -190 -105 -245 -142 -114 -75 -242 -196 -275
-261 -30 -60 -37 -143 -16 -213 41 -143 242 -359 521 -563 44 -32 81 -59 83
-61 2 -1 -6 -17 -17 -35 -43 -70 -18 -154 56 -190 39 -19 50 -20 83 -10 35 10
90 60 90 81 0 4 -6 13 -14 19 -8 7 -18 26 -21 42 -8 34 -48 69 -81 69 -42 0
-35 -19 21 -56 30 -20 55 -43 55 -51 0 -26 -47 -63 -80 -63 -66 0 -107 93 -63
142 15 17 15 21 3 29 -24 16 17 39 68 39 38 0 50 -5 83 -39 33 -33 39 -45 39
-82 0 -43 2 -45 58 -81 l59 -38 200 0 201 0 34 43 c74 90 198 302 198 336 0 5
-53 21 -117 36 -466 108 -789 257 -969 448 -97 102 -119 149 -119 257 0 102
20 147 97 222 42 41 55 48 88 48 21 0 42 5 45 10 11 18 117 67 193 89 99 30
91 45 -24 48 l-89 2 -145 -75z"/>
<path d="M1198 1426 c-98 -27 -158 -105 -158 -205 0 -28 7 -65 14 -80 52 -100
194 -137 309 -79 37 18 54 47 20 33 -99 -42 -158 -45 -223 -12 -56 28 -81 63
-87 120 -7 61 11 109 57 151 61 55 136 69 210 40 55 -22 80 -60 80 -122 0 -60
-36 -112 -76 -112 -29 0 -31 19 -9 100 16 60 13 70 -15 53 -14 -10 -21 -9 -30
2 -17 20 -55 19 -91 -2 -56 -33 -76 -148 -29 -173 28 -15 76 -12 90 5 12 14
15 14 30 0 45 -41 138 8 161 85 40 132 -99 239 -253 196z m97 -146 c3 -5 0
-30 -6 -55 -15 -58 -47 -83 -84 -67 -44 20 -27 113 25 139 24 12 52 5 65 -17z"/>
<path d="M2030 1405 c0 -18 5 -25 20 -25 15 0 20 7 20 25 0 18 -5 25 -20 25
-15 0 -20 -7 -20 -25z"/>
<path d="M1793 1340 c-59 -36 -79 -109 -47 -175 40 -84 148 -95 210 -22 27 32
27 32 6 35 -12 2 -34 -6 -48 -17 -34 -27 -74 -27 -108 0 -51 40 -36 49 79 49
102 0 105 1 105 23 0 37 -34 89 -71 109 -44 23 -86 23 -126 -2z m126 -58 l24
-27 -78 -3 c-42 -2 -79 -1 -82 2 -9 9 23 46 47 55 34 13 60 4 89 -27z"/>
<path d="M2198 1346 c-16 -8 -28 -11 -28 -5 0 5 -9 9 -20 9 -19 0 -20 -7 -20
-125 0 -116 1 -125 19 -125 16 0 19 10 23 91 4 91 12 109 50 121 6 2 8 14 6
26 -3 21 -5 21 -30 8z"/>
<path d="M1490 1343 c0 -5 20 -60 44 -123 58 -155 67 -156 123 -13 23 60 45
116 49 126 5 13 1 17 -18 17 -21 0 -27 -10 -53 -85 -16 -47 -33 -85 -36 -85
-3 0 -19 38 -35 85 -25 73 -32 85 -51 85 -13 0 -23 -3 -23 -7z"/>
<path d="M2030 1225 c0 -118 1 -125 20 -125 19 0 20 7 20 125 0 118 -1 125
-20 125 -19 0 -20 -7 -20 -125z"/>
</g>
</svg>
